# This file uses meters as units for non-parametric coordinates.

mtllib abiMyVersion.mtl
g default
v 4.923420 -87.594261 -38.962097
v 4.923424 -87.594261 48.537899
v 4.923450 87.405731 -38.962105
v 4.923454 87.405731 48.537891
vt 0.000000 0.000000
vt 1.000000 0.000000
vt 0.000000 1.000000
vt 1.000000 1.000000
vn -1.000000 0.000000 0.000000
vn -1.000000 0.000000 0.000000
vn -1.000000 0.000000 0.000000
vn -1.000000 0.000000 0.000000
vn -1.000000 0.000000 0.000000
vn -1.000000 0.000000 0.000000
s off
g Abigail_side:pPlane1
usemtl initialShadingGroup
f 1/1/1 2/2/2 3/3/3
f 3/3/4 2/2/5 4/4/6
