# This file uses centimeters as units for non-parametric coordinates.

mtllib chain.mtl
g default
v -0.270000 -1.499957 -0.002705
v 0.270000 -1.499957 -0.002705
v -0.270000 1.500043 -0.000262
v 0.270000 1.500043 -0.000262
vt 0.000000 0.000000
vt 1.000000 0.000000
vt 0.000000 1.000000
vt 1.000000 1.000000
vn 0.000000 -0.000814 1.000000
vn 0.000000 -0.000814 1.000000
vn 0.000000 -0.000814 1.000000
vn 0.000000 -0.000814 1.000000
vn 0.000000 -0.000814 1.000000
vn 0.000000 -0.000814 1.000000
s off
g chain:pPlane1
usemtl chain:lambert2SG
f 1/1/1 2/2/2 3/3/3
f 3/3/4 2/2/5 4/4/6
