# This file uses centimeters as units for non-parametric coordinates.

mtllib firewood.mtl
g default
v -0.272000 -0.274997 -0.001833
v 0.272000 -0.274997 -0.001833
v -0.272000 0.275000 0.000087
v 0.272000 0.275000 0.000087
vt 0.000000 0.000000
vt 1.000000 0.000000
vt 0.000000 1.000000
vt 1.000000 1.000000
vn 0.000000 -0.003491 0.999994
vn 0.000000 -0.003491 0.999994
vn 0.000000 -0.003491 0.999994
vn 0.000000 -0.003491 0.999994
vn 0.000000 -0.003491 0.999994
vn 0.000000 -0.003491 0.999994
g pPlane1
usemtl lambert2SG
f 1/1/1 2/2/2 3/3/3
f 3/3/4 2/2/5 4/4/6
