# This file uses centimeters as units for non-parametric coordinates.

mtllib key2.mtl
g default
v -0.150000 -0.074997 -0.002531
v 0.150000 -0.074997 -0.002531
v -0.150000 0.075003 -0.000436
v 0.150000 0.075003 -0.000436
vt 0.000000 0.000000
vt 1.000000 0.000000
vt 0.000000 1.000000
vt 1.000000 1.000000
vn 0.000000 -0.013961 0.999903
vn 0.000000 -0.013961 0.999903
vn 0.000000 -0.013961 0.999903
vn 0.000000 -0.013961 0.999903
vn 0.000000 -0.013961 0.999903
vn 0.000000 -0.013961 0.999903
g pPlane1
usemtl lambert2SG
f 1/1/1 2/2/2 3/3/3
f 3/3/4 2/2/5 4/4/6
