# This file uses centimeters as units for non-parametric coordinates.

mtllib statue.mtl
g default
v -0.370000 -0.399989 -0.002705
v 0.370000 -0.399989 -0.002705
v -0.370000 0.400011 -0.000262
v 0.370000 0.400011 -0.000262
vt 0.000000 0.000000
vt 1.000000 0.000000
vt 0.000000 1.000000
vt 1.000000 1.000000
vn 0.000000 -0.003054 0.999995
vn 0.000000 -0.003054 0.999995
vn 0.000000 -0.003054 0.999995
vn 0.000000 -0.003054 0.999995
vn 0.000000 -0.003054 0.999995
vn 0.000000 -0.003054 0.999995
g pPlane1
usemtl lambert2SG
f 1/1/1 2/2/2 3/3/3
f 3/3/4 2/2/5 4/4/6
