# This file uses centimeters as units for non-parametric coordinates.

mtllib statue.mtl
g default
v -0.300000 -0.375000 0.000000
v 0.300000 -0.375000 0.000000
v -0.300000 0.375000 -0.000000
v 0.300000 0.375000 -0.000000
vt 0.000000 0.000000
vt 0.923077 0.000000
vt 0.000000 1.000000
vt 0.923077 1.000000
vn 0.000000 0.000000 1.000000
vn 0.000000 0.000000 1.000000
vn 0.000000 0.000000 1.000000
vn 0.000000 0.000000 1.000000
s 1
g pPlane1
usemtl initialShadingGroup
f 1/1/1 2/2/2 3/3/3
f 3/3/3 2/2/2 4/4/4
