# This file uses centimeters as units for non-parametric coordinates.

mtllib vase.mtl
g default
v -0.150000 -0.274991 -0.003403
v 0.150000 -0.274991 -0.003403
v -0.150000 0.274996 0.000436
v 0.150000 0.274996 0.000436
vt 0.000000 0.000000
vt 1.000000 0.000000
vt 0.000000 1.000000
vt 1.000000 1.000000
vn 0.000000 -0.006981 0.999976
vn 0.000000 -0.006981 0.999976
vn 0.000000 -0.006981 0.999976
vn 0.000000 -0.006981 0.999976
vn 0.000000 -0.006981 0.999976
vn 0.000000 -0.006981 0.999976
g pPlane1
usemtl lambert2SG
f 1/1/1 2/2/2 3/3/3
f 3/3/4 2/2/5 4/4/6
