# This file uses centimeters as units for non-parametric coordinates.

mtllib WallBetweenWall.mtl
g default
v -0.500000 -1.499957 -0.011072
v 0.500000 -1.499957 -0.011072
v -0.500000 1.500043 -0.001072
v 0.500000 1.500043 -0.001072
vt 0.000000 0.000000
vt 1.000000 0.000000
vt 0.000000 1.000000
vt 1.000000 1.000000
vn 0.000000 -0.003334 0.999994
vn 0.000000 -0.003334 0.999994
vn 0.000000 -0.003334 0.999994
vn 0.000000 -0.003334 0.999994
vn 0.000000 -0.003334 0.999994
vn 0.000000 -0.003334 0.999994
s off
g camin:pPlane1
usemtl camin:lambert2SG
f 1/1/1 2/2/2 3/3/3
f 3/3/4 2/2/5 4/4/6
